<svg width="120" height="120" viewBox="0 0 120 120" fill="none" xmlns="http://www.w3.org/2000/svg">
<circle cx="60" cy="60" r="60" fill="url(#paint0_linear)"/>
<path d="M53 20C53 17.2386 55.2386 15 58 15H62C64.7614 15 67 17.2386 67 20V105H53V20Z" fill="url(#paint1_linear)"/>
<path d="M74 52C74 49.2386 76.2386 47 79 47H83C85.7614 47 88 49.2386 88 52V105H74V52Z" fill="url(#paint2_linear)"/>
<path d="M32 42C32 39.2386 34.2386 37 37 37H41C43.7614 37 46 39.2386 46 42V105H32V42Z" fill="url(#paint3_linear)"/>
<defs>
<linearGradient id="paint0_linear" x1="0" y1="60" x2="120" y2="60" gradientUnits="userSpaceOnUse">
<stop stop-color="#3B4964"/>
<stop offset="1" stop-color="#252B3B"/>
</linearGradient>
<linearGradient id="paint1_linear" x1="60" y1="15" x2="60" y2="105" gradientUnits="userSpaceOnUse">
<stop stop-color="white"/>
<stop offset="1" stop-color="white" stop-opacity="0"/>
</linearGradient>
<linearGradient id="paint2_linear" x1="81" y1="47" x2="81" y2="105" gradientUnits="userSpaceOnUse">
<stop stop-color="white"/>
<stop offset="1" stop-color="white" stop-opacity="0"/>
</linearGradient>
<linearGradient id="paint3_linear" x1="39" y1="37" x2="39" y2="105" gradientUnits="userSpaceOnUse">
<stop stop-color="white"/>
<stop offset="1" stop-color="white" stop-opacity="0"/>
</linearGradient>
</defs>
</svg>
